<svg width="8" height="5" viewBox="0 0 8 5" fill="none" xmlns="http://www.w3.org/2000/svg">
    <path d="M4.48 4.52C4.38633 4.61379 4.25923 4.66655 4.12667 4.66667H3.87334C3.74106 4.66513 3.61448 4.61259 3.52 4.52L0.100003 1.09333C0.036899 1.03074 0.00140381 0.945544 0.00140381 0.856665C0.00140381 0.767785 0.036899 0.682587 0.100003 0.619998L0.573337 0.146665C0.634779 0.0839553 0.718877 0.048617 0.80667 0.048617C0.894463 0.048617 0.978561 0.0839553 1.04 0.146665L4 3.11333L6.96 0.146665C7.02259 0.0835604 7.10779 0.0480652 7.19667 0.0480652C7.28555 0.0480652 7.37075 0.0835604 7.43334 0.146665L7.9 0.619998C7.96311 0.682587 7.9986 0.767785 7.9986 0.856665C7.9986 0.945544 7.96311 1.03074 7.9 1.09333L4.48 4.52Z" fill="#DEDEDE"/>
</svg>
