<svg width="13" height="12" viewBox="0 0 13 12" fill="none" xmlns="http://www.w3.org/2000/svg">
    <path fill-rule="evenodd" clip-rule="evenodd" d="M9.25 8.30362L11.9167 10.9735C12.0358 11.106 12.0299 11.3087 11.9033 11.4341L11.4367 11.9013C11.3741 11.9645 11.2889 12 11.2 12C11.1111 12 11.0259 11.9645 10.9633 11.9013L8.29666 9.2314C8.22291 9.1575 8.15597 9.07707 8.09666 8.99111L7.59666 8.32364C6.76937 8.98506 5.74203 9.34518 4.68333 9.34487C2.50174 9.35245 0.606014 7.84573 0.118485 5.71674C-0.369044 3.58774 0.681736 1.40466 2.64873 0.459942C4.61573 -0.484772 6.97398 0.0610084 8.32733 1.77417C9.68068 3.48732 9.66795 5.91064 8.29666 7.60945L8.96333 8.07C9.06744 8.13672 9.16362 8.21509 9.25 8.30362ZM1.35 4.67258C1.35 6.51575 2.84238 8.00993 4.68333 8.00993C5.56739 8.00993 6.41523 7.65832 7.04035 7.03244C7.66548 6.40657 8.01666 5.5577 8.01666 4.67258C8.01666 2.82941 6.52428 1.33523 4.68333 1.33523C2.84238 1.33523 1.35 2.82941 1.35 4.67258Z" fill="#053FE3"/>
</svg>
